<svg version="1.1" viewBox="0.0 0.0 960.0 540.0" fill="none" stroke="none" stroke-linecap="square" stroke-miterlimit="10" xmlns:xlink="http://www.w3.org/1999/xlink" xmlns="http://www.w3.org/2000/svg"><clipPath id="g83da850d4e_0_0.0"><path d="m0 0l960.0 0l0 540.0l-960.0 0l0 -540.0z" clip-rule="nonzero"/></clipPath><g clip-path="url(#g83da850d4e_0_0.0)"><path fill="#ffffff" d="m0 0l960.0 0l0 540.0l-960.0 0z" fill-rule="evenodd"/><path fill="#000000" fill-opacity="0.3408" d="m277.16534 461.3185l0 0c0 -32.815277 101.2048 -59.417328 226.04724 -59.417328l0 0c124.84247 0 226.04724 26.60205 226.04724 59.417328l0 0c0 32.815277 -101.20477 59.417328 -226.04724 59.417328l0 0c-124.84244 0 -226.04724 -26.60205 -226.04724 -59.417328z" fill-rule="evenodd"/><path fill="#ff9900" d="m277.18423 256.4682l0 0c0 -124.853806 101.21402 -226.06783 226.06784 -226.06783l0 0c59.95691 0 117.45819 23.817795 159.85413 66.21373c42.395935 42.395943 66.213745 99.89718 66.213745 159.8541l0 0c0 124.85382 -101.21405 226.06784 -226.06787 226.06784l0 0c-124.85382 0 -226.06784 -101.21402 -226.06784 -226.06784z" fill-rule="evenodd"/><path stroke="#000000" stroke-width="8.0" stroke-linejoin="round" stroke-linecap="butt" d="m277.18423 256.4682l0 0c0 -124.853806 101.21402 -226.06783 226.06784 -226.06783l0 0c59.95691 0 117.45819 23.817795 159.85413 66.21373c42.395935 42.395943 66.213745 99.89718 66.213745 159.8541l0 0c0 124.85382 -101.21405 226.06784 -226.06787 226.06784l0 0c-124.85382 0 -226.06784 -101.21402 -226.06784 -226.06784z" fill-rule="evenodd"/><path fill="#000000" fill-opacity="0.0782" d="m508.06107 478.32532l0 0c-127.509735 0 -230.87683 -99.3288 -230.87683 -221.85712c0 -122.52829 103.367096 -221.85709 230.87683 -221.85709l0 0c-74.49133 51.223137 -118.68686 133.83624 -118.68686 221.85709c0 88.020874 44.195526 170.63397 118.68686 221.85712z" fill-rule="evenodd"/><path fill="#eeeeee" d="m345.71204 206.74196c-4.444977 -22.596954 5.3440247 -45.988785 24.644836 -58.891342c19.300781 -12.902557 44.148315 -12.665222 62.556244 0.5975189c18.407959 13.262726 26.594666 36.826263 20.610931 59.32361z" fill-rule="evenodd"/><path stroke="#000000" stroke-width="8.0" stroke-linejoin="round" stroke-linecap="butt" d="m345.71204 206.74196c-4.444977 -22.596954 5.3440247 -45.988785 24.644836 -58.891342c19.300781 -12.902557 44.148315 -12.665222 62.556244 0.5975189c18.407959 13.262726 26.594666 36.826263 20.610931 59.32361z" fill-rule="evenodd"/><path fill="#eeeeee" d="m543.79816 205.66324c-4.001648 -22.68219 6.246338 -45.875443 25.800232 -58.391006c19.553894 -12.515564 44.396484 -11.782227 62.543335 1.8462524c18.146912 13.628494 25.869934 37.35225 19.44342 59.726593z" fill-rule="evenodd"/><path stroke="#000000" stroke-width="8.0" stroke-linejoin="round" stroke-linecap="butt" d="m543.79816 205.66324c-4.001648 -22.68219 6.246338 -45.875443 25.800232 -58.391006c19.553894 -12.515564 44.396484 -11.782227 62.543335 1.8462524c18.146912 13.628494 25.869934 37.35225 19.44342 59.726593z" fill-rule="evenodd"/></g></svg>